<svg width="601"
     height="683"
     viewBox="0 0 601 683"
     fill="none"
     xmlns="http://www.w3.org/2000/svg">
  <path d="M208.543 639.327L201.028 512.279C200.793 508.309 202.054 502.657 208.974 511.81C215.894 520.963 219.806 598.795 219.427 637.331C260.905 655.029 268.072 679.636 258.802 680.184C234.371 680.564 215.117 653.105 208.543 639.327Z"
        fill="#466264" />
  <path d="M403.566 612.571L400.462 497.566C402.485 489.171 407.251 488.546 411.113 490.417L411.113 608.653C462.503 621.791 476.692 638.986 470.274 644.613C439.713 651.456 413.068 626.103 403.566 612.571Z"
        fill="#466264" />
  <path d="M433.032 57.2111C333.41 -16.9247 137.17 68.6843 51.5027 120.756L117.156 513.319C266.65 540.667 345.275 529.317 504.569 462.31L433.032 57.2111Z"
        fill="#A0E8E7" />
  <path d="M249.558 152.845C124.606 162.754 88.5126 190.707 82.4833 204.016L133.214 498.199C279.241 525.317 395.301 498.199 480.845 449.396L421.317 104.298C397.832 89.7403 295.215 129.372 249.558 152.845Z"
        fill="#F774C2" />
  <path d="M60.0189 162.63C56.2827 156.656 54.726 135.25 54.4147 125.294C178.456 55.8485 360.78 54.0437 436.438 61.822V106.625C218.806 63.6888 64.6891 170.097 60.0189 162.63Z"
        fill="#87C8C8"
        fill-opacity="0.52" />
  <path d="M112.57 160.386C87.7718 167.023 91.5341 189.391 96.515 199.745C101.826 204.68 127.514 388.712 139.694 480.111C143.679 491.174 162.758 494.309 171.799 494.493C127.073 315.712 118.106 214.964 119.213 186.937C140.469 168.351 138.402 158.91 134.712 156.513C131.022 154.116 119.214 158.608 112.57 160.386Z"
        fill="white"
        fill-opacity="0.58" />
  <path d="M167.371 410.966C163.127 429.22 160.064 468.605 181.763 480.111C184.53 459.091 185.527 415.834 167.371 410.966Z"
        fill="white"
        fill-opacity="0.58" />
  <path d="M152.425 147.663C144.454 145.893 141.724 150.613 141.354 153.195C141.354 164.211 140.255 170.279 146.816 172.527C153.378 174.775 151.128 163.535 152.425 163.91C153.463 164.209 157.286 159.104 159.068 156.513C164.382 149.875 156.853 147.847 152.425 147.663Z"
        fill="white"
        fill-opacity="0.58" />
  <path d="M440.421 80.7775C277.7 52.5998 110.23 109.64 46.8354 141.683C11.0016 123.484 18.6872 93.4966 27.0092 80.7775L430.875 0.0587769C464.946 31.1719 451.435 66.8351 440.421 80.7775Z"
        fill="#858484" />
  <ellipse cx="354.51"
           cy="247.028"
           rx="9.1313"
           ry="18.2501"
           fill="#496161" />
  <ellipse cx="201.561"
           cy="265.278"
           rx="9.13129"
           ry="18.2501"
           fill="#496161" />
  <ellipse rx="10.7911"
           ry="6.26341"
           transform="matrix(-0.121011 -0.992651 0.992587 -0.121535 206.553 267.295)"
           fill="white" />
  <ellipse rx="10.7912"
           ry="6.26338"
           transform="matrix(-0.109377 -0.994 0.993948 -0.109852 358.472 248.19)"
           fill="white" />
  <path d="M238.895 307.133C202.723 298.792 199.477 317.56 202.375 327.987C219.765 367.958 390.189 359.268 388.45 307.133C387.059 265.425 363.524 277.011 351.931 288.017C299.76 334.938 284.109 317.56 238.895 307.133Z"
        fill="white" />
  <path d="M229.361 306.316L233.164 346.116M255.703 312.483L260.625 351.117M285.668 320.38L290.909 351.886M313.657 316.103L319.911 348.424M337.694 300.966L345.927 342.427M363.049 281.223L369.964 333.214"
        stroke="black"
        stroke-opacity="0.56"
        stroke-linecap="round" />
  <ellipse cx="161.292"
           cy="315.344"
           rx="22.0161"
           ry="22.0011"
           fill="#F64A92"
           fill-opacity="0.61" />
  <ellipse cx="412.171"
           cy="261.945"
           rx="22.0161"
           ry="22.0011"
           fill="#F64A92"
           fill-opacity="0.61" />
  <path d="M13.0165 449.38C0.0288186 391.624 55.6479 353.626 85.0809 341.847C101.155 333.694 107.05 338.45 107.989 341.847L95.813 352.039C26.3288 377.347 23.5689 423.693 30.8745 443.702C42.7533 447.905 46.2974 457.839 48.6443 460.782C57.844 462.134 75.5368 471.323 85.6476 476.788C96.4677 482.637 83.8067 490.402 81.2019 487.505L46.6407 474.654C50.8394 476.367 59.5218 485.128 73.8963 498.051C85.6476 508.615 75.2492 512.652 68.2141 510.218L38.1801 487.505L46.2974 522.386C44.9986 538.61 30.8745 527.012 30.8745 522.386C30.0627 510.759 26.9782 487.505 21.1337 487.505C15.2892 487.505 13.287 510.759 13.0165 522.386C4.5746 527.578 1.38168 520.223 0.840454 515.897L13.0165 449.38Z"
        fill="#435F60" />
  <path d="M559.946 297.099C548.965 252 495.933 245.227 470.789 247.478C456.455 247.502 453.914 252.938 454.435 255.653L466.701 258.448C525.183 251.384 543.405 282.868 545.206 299.493C538.199 306.677 539.153 314.901 538.509 317.801C532.415 322.031 523.006 334.782 517.704 342.219C512.031 350.178 523.793 351.1 524.636 348.141L544.804 326.805C542.407 329.503 539.281 338.74 533.55 352.922C528.865 364.517 537.704 363.635 541.873 359.419L555.351 332.789L561.787 360.123C568.404 371.026 574.42 357.86 572.798 354.619C569.3 346.184 563.348 328.792 567.521 326.706C571.693 324.62 581.277 340.197 585.547 348.247C593.395 348.871 593.095 342.579 591.964 339.355L559.946 297.099Z"
        fill="#435F60" />
</svg>